<?xml version="1.0" encoding="UTF-8" standalone="no"?>
<!DOCTYPE svg PUBLIC "-//W3C//DTD SVG 1.1//EN" "http://www.w3.org/Graphics/SVG/1.1/DTD/svg11.dtd">
<svg width="100%" height="100%" viewBox="0 0 960 960" version="1.1" xmlns="http://www.w3.org/2000/svg" xmlns:xlink="http://www.w3.org/1999/xlink" xml:space="preserve" xmlns:serif="http://www.serif.com/" style="fill-rule:evenodd;clip-rule:evenodd;stroke-linejoin:round;stroke-miterlimit:2;">
    <g transform="matrix(0.894338,0,0,0.894338,22.0988,40.2799)">
        <path d="M269.389,283.747C289.589,283.747 307.473,270.69 313.625,251.45C322.852,222.595 334.923,184.846 334.923,184.846C340.375,167.797 356.222,156.227 374.121,156.227C437.886,156.227 586.114,156.227 649.879,156.227C667.778,156.227 683.625,167.797 689.077,184.846C689.077,184.846 701.148,222.595 710.375,251.45C716.527,270.69 734.411,283.747 754.611,283.747L845.903,283.747C892.718,283.747 930.669,321.698 930.669,368.513L930.669,742.349C930.669,789.164 892.718,827.114 845.903,827.114L178.097,827.114C131.282,827.114 93.331,789.164 93.331,742.349L93.331,368.513C93.331,321.698 131.282,283.747 178.097,283.747L269.389,283.747ZM733.949,442.323C733.949,424.739 726.964,407.875 714.53,395.441C702.097,383.007 685.233,376.022 667.649,376.022L237.767,376.022C220.183,376.022 203.319,383.007 190.885,395.441C178.451,407.875 171.466,424.739 171.466,442.323L171.466,669.699C171.466,687.283 178.451,704.147 190.885,716.581C203.319,729.015 220.183,736 237.767,736L667.649,736C685.233,736 702.097,729.015 714.53,716.581C726.964,704.147 733.949,687.283 733.949,669.699C733.949,604.976 733.949,507.046 733.949,442.323ZM818.373,366.904C833.829,366.904 846.377,379.453 846.377,394.909C846.377,410.365 833.829,422.913 818.373,422.913C802.917,422.913 790.368,410.365 790.368,394.909C790.368,379.453 802.917,366.904 818.373,366.904Z" style="fill:white;"/>
    </g>
    <g transform="matrix(1.05427,0,0,1.05427,-64.2633,-30.6624)">
        <path d="M649.274,580.42C652.391,580.42 655.381,581.659 657.585,583.863C659.79,586.067 661.028,589.057 661.028,592.175C661.028,592.176 661.028,592.177 661.028,592.178C661.028,595.295 659.79,598.285 657.585,600.489C655.381,602.694 652.391,603.932 649.274,603.932C614.512,603.932 512.466,603.932 477.705,603.932C474.587,603.932 471.598,602.694 469.393,600.489C467.189,598.285 465.951,595.295 465.951,592.178C465.951,592.177 465.951,592.176 465.951,592.175C465.951,589.057 467.189,586.067 469.393,583.863C471.598,581.659 474.587,580.42 477.705,580.42C512.466,580.42 614.512,580.42 649.274,580.42ZM589.89,520.849C593.007,520.849 595.997,522.088 598.201,524.292C600.405,526.497 601.644,529.486 601.644,532.604C601.644,532.605 601.644,532.606 601.644,532.607C601.644,535.724 600.405,538.714 598.201,540.918C595.997,543.123 593.007,544.361 589.89,544.361C564.216,544.361 503.378,544.361 477.705,544.361C474.587,544.361 471.598,543.123 469.393,540.918C467.189,538.714 465.951,535.724 465.951,532.607C465.951,532.606 465.951,532.605 465.951,532.604C465.951,529.486 467.189,526.497 469.393,524.292C471.598,522.088 474.587,520.849 477.705,520.849C503.378,520.849 564.216,520.849 589.89,520.849ZM539.136,460.365C542.253,460.365 545.243,461.603 547.447,463.807C549.652,466.012 550.89,469.002 550.89,472.119C550.89,472.12 550.89,472.121 550.89,472.122C550.89,475.24 549.652,478.229 547.447,480.434C545.243,482.638 542.253,483.876 539.136,483.876C522.933,483.876 493.907,483.876 477.705,483.876C474.587,483.876 471.598,482.638 469.393,480.434C467.189,478.229 465.951,475.24 465.951,472.122C465.951,472.121 465.951,472.12 465.951,472.119C465.951,469.002 467.189,466.012 469.393,463.807C471.598,461.603 474.587,460.365 477.705,460.365C493.907,460.365 522.933,460.365 539.136,460.365Z" style="fill:white;"/>
    </g>
    <g id="Layer3" transform="matrix(1.02271,0,0,1.02271,-32.9412,-32.8268)">
        <g transform="matrix(0.874483,0,0,0.874483,53.868,55.2576)">
            <path d="M242.452,650.977C235.789,641.672 243.575,625.806 262.502,607.937C280.553,590.895 303.606,585.538 317.446,585.538C331.286,585.538 355.646,590.895 372.511,607.937C390.194,625.806 399.134,641.672 392.464,650.977C385.794,660.282 345.511,663.767 317.446,663.767C289.095,663.767 249.114,660.282 242.452,650.977Z" style="fill:white;"/>
        </g>
        <g transform="matrix(1,0,0,0.941582,-10.6603,15.8834)">
            <path d="M342.096,475.305C353.834,475.305 364.905,478.994 371.358,490.186C374.724,496.023 377.065,505.713 377.065,514.114C377.065,522.234 374.523,534.68 371.358,542.234C364.97,557.482 354.038,564.394 342.096,564.394C329.621,564.394 318.971,558.451 312.794,542.234C310.127,535.235 307.095,521.504 307.095,514.114C307.095,505.713 309.427,496.023 312.794,490.186C319.249,478.994 330.359,475.305 342.096,475.305Z" style="fill:white;"/>
        </g>
    </g>
</svg>
